PathFileType	4	(X/Y/Z)	T1_P1_Vision_Movement_2_0-687.trc
DataRate	CameraRate	NumFrames	NumMarkers	Units	OrigDataRate	OrigDataStartFrame	OrigNumFrames
60	60	6	27	m	60	0	687
Frame#	Time	RHip			RKnee			RAnkle			RBigToe			RSmallToe			RHeel			LHip			LKnee			LAnkle			LBigToe			LSmallToe			LHeel			Neck			Head			Nose			RShoulder			RElbow			RWrist			RThumb			RIndex			RPinky			LShoulder			LElbow			LWrist			LThumb			LIndex			LPinky		
		X1	Y1	Z1	X2	Y2	Z2	X3	Y3	Z3	X4	Y4	Z4	X5	Y5	Z5	X6	Y6	Z6	X7	Y7	Z7	X8	Y8	Z8	X9	Y9	Z9	X10	Y10	Z10	X11	Y11	Z11	X12	Y12	Z12	X13	Y13	Z13	X14	Y14	Z14	X15	Y15	Z15	X16	Y16	Z16	X17	Y17	Z17	X18	Y18	Z18	X19	Y19	Z19	X20	Y20	Z20	X21	Y21	Z21	X22	Y22	Z22	X23	Y23	Z23	X24	Y24	Z24	X25	Y25	Z25	X26	Y26	Z26	X27	Y27	Z27
1	0.0166666666666666	-111.94874312719286	3902.1451248660837	-649.2888485302392	246.40917554358154	4079.5942910916547	-663.5597817535837	594.855607957595	4262.07993825718	-689.6960573989319	683.5833234956244	4170.064269559358	-642.6201172930672	674.4957899102121	4139.347703676141	-684.1204611214227	645.6163221600659	4319.250336451427	-698.6389443534703	-139.7531056976842	4044.456737750586	-507.6240981081931	215.81254426115558	4166.999494966951	-504.46760011057614	560.8774848673416	4334.929882612649	-521.2526023911477	636.8009594464773	4213.963236729252	-400.1302306230587	605.5501581614657	4245.873388355686	-372.8786497545848	613.3845876470955	4411.093972564243	-554.0307525703951	-705.01105326803	3790.7683404170593	-591.7114903291008	-936.6820252673692	3628.6514381980674	-526.3109915459357	-778.2474636096216	3612.647107358743	-459.1323808407904	-595.4468289906692	3774.0606964238514	-733.6012784632087	-327.7358060153495	3658.3610223714845	-720.3262099111246	-529.7800850427157	3578.080183168074	-599.0027233037108	-632.5585837379335	3556.2833019363657	-549.6090541506425	-644.3425174684924	3526.372529808412	-517.5688427968441	-576.6876089754064	3525.065477720361	-521.5221530904153	-646.7750182709952	3931.078734510824	-488.3293685876837	-432.79576193095886	4109.729261324852	-432.91416682721285	-157.82287474737387	4095.1138666288907	-366.6476720179382	-43.80189521479705	4074.8689794441175	-367.41997669461784	0.31542891204498424	4152.799186061813	-371.72574906281704	-32.95537037250903	4150.528271141986	-341.92703070488744
2	0.0333333333333333	-111.77490866131929	3918.04367978761	-655.928901011411	245.5823720462501	4073.622157080099	-662.5097457097527	599.7513455494382	4264.660453631439	-691.2330952839529	686.7378126502864	4189.414672624824	-647.2622116839567	674.8465444771992	4145.542227880594	-690.179988810424	641.0680819027468	4317.345250165387	-699.1081301802449	-138.15767057508646	4045.2879501700672	-507.84573927389476	215.68978459582019	4174.60066625463	-506.0226077018772	553.0641767527633	4332.255664174391	-521.9541930155297	635.9519267781006	4222.0960453042135	-401.9161335996913	607.2596448751979	4265.746432395975	-376.5792411099053	610.4817767716494	4398.168013866571	-551.2751948912952	-703.1884149701947	3791.007520104517	-591.4224972183874	-934.8333731235152	3620.8057474723464	-519.6173259028243	-772.3128093552775	3615.321409099187	-459.6274998100323	-595.4782176355154	3773.8700622202796	-733.4844237930538	-327.45256590100155	3657.4746074456543	-723.6396069847834	-529.6706166619995	3578.205045382034	-599.1518325811148	-629.9449244857994	3558.9870405380657	-549.9744654312956	-642.6870626392324	3527.4349483477044	-518.0641281198929	-573.799665512276	3529.669079860121	-523.3320367707538	-646.7813560040722	3931.4425144159486	-488.36517808031476	-428.6656092860424	4100.76160006489	-434.660797758353	-158.65680289660776	4094.3481816108374	-366.34080533368797	-42.81349312968818	4076.0728206305903	-367.5775706791629	-3.4178427761129564	4150.600986216548	-370.9560593266538	-33.47310583752469	4150.422245803319	-341.2591702395245
3	0.05	-112.23556240473019	3928.33640930288	-658.6904520429742	244.00227549704758	4069.583693029266	-661.5062543298721	601.9257313796253	4266.242688118055	-692.1907266085055	687.0014791138796	4197.195479055155	-649.2513343246526	675.3809258475203	4152.192844099097	-695.9784659417586	638.3090642051433	4316.288963371598	-699.4250946519945	-138.4705238641246	4045.373270229068	-507.74229149126927	214.59222782147432	4177.532310265139	-506.46099954653914	547.8529936365563	4330.33237978496	-522.1916596867765	634.5622017389683	4225.421324053151	-402.76563907894035	607.2503359206744	4277.682134036648	-378.87901589363304	607.9453587764558	4388.467802903526	-549.0496292830675	-701.4306019505661	3791.319464611594	-591.1795344659657	-934.309130468231	3618.817884032381	-517.8359545010348	-768.7817451150687	3616.920073294229	-459.93128536198316	-595.4870213771287	3773.7611260806643	-733.4117151288829	-327.81738695393796	3656.5537900990344	-725.5067894876	-529.5800809320523	3578.198593220901	-599.2102144098158	-628.3076426150819	3559.551976345724	-549.9602564332395	-640.7446523145553	3526.895575264919	-517.223644995153	-572.3818122543126	3531.92541622649	-524.8057499649914	-646.780618017509	3931.6687455071897	-488.3880037627277	-426.71881234823024	4095.8835344731806	-436.14092920588	-159.55937396648648	4093.6051160764187	-366.01601556953915	-42.33931683104334	4075.6063209939066	-367.50993848076683	-5.700402089499002	4145.880775919634	-369.89369352737833	-33.68801465661872	4150.187284549517	-339.96515784281235
4	0.0666666666666666	-113.84645635691112	3931.529335883356	-657.9540645754106	241.4904653813432	4062.1004592673444	-658.4795143717395	601.6807815186853	4266.75214530269	-692.4918290059125	684.3310984404752	4191.469497510273	-648.1253461362468	675.3863348994577	4157.0575880987235	-700.1376566747666	637.5424271345169	4316.149935248963	-699.5695203373758	-140.66139844733962	4045.5684709539296	-507.6716467891549	212.58995990702545	4174.310649759967	-505.05478988380827	545.8592660175002	4329.601733632831	-521.5525520936923	632.9664023617646	4223.1548196004005	-402.46162330903474	605.8301731085332	4281.023593902794	-379.6102806843712	606.6402949841233	4384.789637849719	-547.3512307365704	-700.16503259423	3791.6036221383165	-591.0168603929203	-935.0260781461295	3622.232140295625	-520.5879128464917	-768.1543151604911	3617.1532585289733	-459.95149261286747	-595.4750518308238	3773.753153699465	-733.4002740406181	-329.01063524006486	3655.6838399538265	-725.9322210492554	-529.6250131103769	3577.9915378658	-599.1603195448691	-627.9981919455128	3558.326425095028	-549.594227485618	-638.7317545211924	3523.788640183908	-514.3023274511091	-571.9266443877718	3531.30033878511	-524.9903094516242	-646.7812549059663	3931.74497368768	-488.41246159811817	-426.7887016359726	4095.3863873238947	-437.2584139328508	-159.90427376696107	4093.318550246733	-365.8474631904101	-41.75493993721827	4071.9602429450206	-366.8120696785645	-6.353798909309715	4137.334534757467	-368.3053916662315	-33.08606518037341	4150.113060056282	-338.59487285747423
5	0.0833333333333333	-116.40357850471801	3930.771878464845	-656.78274064043	238.85534463136332	4049.22660339943	-652.7253397401103	600.8427609106675	4266.778726772521	-692.4697382565995	680.7699512186575	4181.7115364379	-646.1445309183216	674.2627132951696	4159.370911238056	-702.2573113289242	637.7952793332709	4316.355218417231	-699.556085725869	-143.33179640096347	4047.673810815161	-508.2136829030568	210.70740989955596	4168.70137108451	-502.40788533714175	545.7790144731632	4329.840060691256	-520.0909960957398	631.9486641196546	4220.52899030757	-401.95274258404294	604.7224061570545	4280.162019090185	-379.49152921787845	606.6178235210438	4384.12636612135	-545.3071158419301	-699.7442647485574	3791.710930348563	-590.9331853634665	-935.9645710986908	3626.3849886090843	-524.0088571864263	-769.5473383940247	3616.317692092922	-459.6782270440907	-595.4565842380222	3773.804301877742	-733.4306250893503	-330.3409837516593	3655.6477652552276	-726.2051379294178	-529.9944798072196	3577.550163977262	-599.0134711284588	-627.8922900553055	3556.990782947757	-549.0654541316183	-637.5104889794226	3519.298824887752	-510.4149268916742	-571.2366811421433	3529.1334946169554	-523.6910436838089	-646.7974181794899	3931.7479249324447	-488.4589622266357	-427.36932268071973	4095.6197399262546	-437.18015475189844	-159.3887369442443	4093.636030522917	-365.92195968687173	-40.58533032406756	4065.006907988287	-365.3633651338674	-6.134915027936995	4127.880963619275	-366.6213406578034	-31.475053635798176	4150.539147828855	-338.22262347914216
6	0.1	-118.23136201480548	3931.4121718809074	-657.921765737204	237.33564726720158	4040.399479098416	-648.1202850988528	600.3908737859463	4266.843073005613	-692.4896823165417	678.6145760075383	4180.4819592916265	-646.2836359624166	672.9488777576695	4162.41657577408	-703.4465320519881	638.0498322770935	4316.324391840906	-699.3801092837095	-145.19848169141363	4051.6146562695285	-509.26745825376827	209.74463372551114	4165.222238980701	-500.39741061423746	546.0627600638528	4330.332156804786	-518.8563947378385	631.589751752708	4222.10726417842	-402.11732506154647	604.7639324578192	4278.8336531901905	-379.22244428998357	606.9732783818249	4381.45702067408	-543.0304076610151	-700.2632217359791	3791.5603941146514	-590.9139226495474	-936.5609396712289	3628.7974236319346	-526.1547010085051	-771.9337477793423	3614.873959467816	-459.1913489052448	-595.4356859633126	3773.860424073162	-733.4664512351276	-330.8828461538664	3657.954505786311	-727.9052456079722	-530.6432851744709	3576.9592030945087	-598.785751604545	-626.9132110646088	3556.388599463434	-548.4948506604987	-637.7753603726192	3516.552181828774	-508.2147006572582	-570.4053696257696	3528.1927837550843	-522.854082564363	-646.8105582139497	3931.7353138662593	-488.5195086776124	-427.69901048047353	4093.911629430072	-435.54865503043305	-159.0348020405126	4093.8157108540563	-365.99420067789833	-39.41984434118205	4058.7809529473234	-363.9913378160421	-5.756185445306484	4123.989388103396	-365.93605857413695	-29.861216233781708	4151.1705716706065	-338.78649518718566
